<svg viewBox="0 0 230 69" xmlns="http://www.w3.org/2000/svg">
    <path
        d="M23.8205 64.3407L23.2755 64.7101C23.0813 64.8398 22.8953 64.9814 22.7184 65.1339C22.5589 65.2701 22.4255 65.4343 22.3249 65.6183C22.2365 65.7878 22.2128 65.9837 22.2583 66.1693V66.2723L22.2946 66.3752L22.337 66.4781L22.4036 66.6053C22.2764 66.793 22.1674 66.9867 22.0645 67.1684C21.9693 67.3406 21.8599 67.5047 21.7375 67.6589C21.6255 67.8018 21.4827 67.9177 21.3197 67.9979C21.1294 68.0817 20.9218 68.119 20.7142 68.1069C20.4734 68.0966 20.2352 68.0538 20.0058 67.9798C19.7787 67.9049 19.5596 67.8076 19.3519 67.6891C19.1414 67.565 18.9392 67.4275 18.7463 67.2774C18.5465 67.126 18.3467 66.9625 18.1408 66.799V66.7264V66.6537V66.5811C18.1397 66.5569 18.1397 66.5326 18.1408 66.5084C18.0797 66.3348 17.9963 66.17 17.8926 66.0179C17.7865 65.8681 17.6647 65.7301 17.5293 65.6062C17.394 65.4815 17.2504 65.3662 17.0994 65.2611C16.948 65.1581 16.7906 65.0612 16.6392 64.9704V65.0249V65.1097V65.1945V65.2853L16.6695 65.3761C16.833 65.8485 17.0634 66.2951 17.3537 66.7022C17.6349 67.0988 17.9667 67.4571 18.3407 67.7678C18.7077 68.0712 19.1153 68.3219 19.5517 68.5126C19.977 68.6997 20.4321 68.8104 20.8959 68.8396C21.3428 68.8682 21.7903 68.7936 22.2038 68.6216C22.6224 68.4434 22.992 68.1672 23.2816 67.8163C23.5934 67.4416 23.815 67.0004 23.9294 66.5266C24.0527 65.9784 24.0527 65.4096 23.9294 64.8614L23.8205 64.3407Z"
        fill="black"
    /><path
        d="M5.35869 41.2528L5.21337 41.3194L5.06805 41.3921L4.92879 41.4769L4.78952 41.5677C4.52916 41.7372 4.28696 41.9128 4.05686 42.0884C3.82875 42.2726 3.61611 42.4751 3.42109 42.6939C3.21052 42.9219 3.02197 43.1692 2.85797 43.4327C2.66459 43.7436 2.49652 44.0696 2.3554 44.4075C2.8013 44.345 3.25372 44.345 3.69962 44.4075C4.1753 44.4729 4.64105 44.597 5.08622 44.7769C5.58005 44.9777 6.05266 45.2272 6.49704 45.5216C6.99951 45.8511 7.47529 46.2196 7.91997 46.6236L6.05502 41.0288L5.88548 41.0712L5.71594 41.1196L5.55246 41.1802L5.38897 41.2468"
        fill="black"
    /><path
        d="M6.89061 40.9441L8.74345 46.3936L12.8609 46.4542C12.4708 45.6446 12.0173 44.8671 11.5045 44.129C11.0666 43.5095 10.5654 42.9373 10.009 42.4215C9.54971 41.9904 9.02944 41.6292 8.46492 41.3498C7.9825 41.1137 7.45727 40.9778 6.92089 40.9501"
        fill="black"
    /><path
        d="M9.33079 48.1011C10.0094 48.9104 10.6306 49.7663 11.1897 50.6623C11.8344 51.6922 12.4206 52.7576 12.9456 53.8533C13.5088 55.022 14.0416 56.2754 14.5381 57.6377C15.0346 59.0001 15.5009 60.4412 15.9126 61.955C15.9126 61.295 15.9489 60.6168 15.9126 59.9265C15.8763 59.2363 15.8642 58.5339 15.8036 57.8254C15.7431 57.117 15.6704 56.3965 15.5675 55.6759C15.4645 54.9554 15.3434 54.2348 15.1981 53.5082C15.0952 53.0238 14.9862 52.5515 14.8772 52.0853C14.7682 51.619 14.635 51.171 14.5078 50.729C14.3807 50.2869 14.2414 49.8631 14.0961 49.4453C13.9508 49.0275 13.7994 48.6279 13.648 48.2343L9.33079 48.1011Z"
        fill="black"
    /><path
        d="M0 8.07129C0.117064 9.18945 0.250274 10.3197 0.399631 11.4621C0.548989 12.6045 0.710456 13.761 0.884033 14.9316C1.06165 16.1023 1.25339 17.283 1.45926 18.4738C1.66513 19.6646 1.88715 20.8756 2.12531 22.1068C2.4321 23.6932 2.75705 25.2453 3.10017 26.7631C3.44329 28.2809 3.80054 29.7685 4.17191 31.2257C4.54732 32.6789 4.93484 34.0917 5.33447 35.4642C5.73411 36.8367 6.13777 38.1668 6.54548 39.4545C6.72778 39.4262 6.912 39.412 7.09649 39.4121C7.28314 39.4139 7.46938 39.4301 7.65355 39.4605C7.84437 39.4933 8.03257 39.5398 8.21666 39.5998C8.40885 39.665 8.5969 39.7419 8.77978 39.8299C8.35189 38.8086 7.92804 37.757 7.50823 36.6752C7.08841 35.5934 6.68474 34.4893 6.29722 33.3631C5.89355 32.2369 5.50603 31.0864 5.13466 29.9118C4.76328 28.7371 4.40604 27.5341 4.06292 26.303C3.5987 24.7085 3.16476 23.1261 2.76109 21.5558C2.35742 19.9856 1.98807 18.4395 1.65302 16.9177C1.31798 15.3999 1.01119 13.9003 0.732658 12.4188C0.454127 10.9373 0.209907 9.48816 0 8.07129"
        fill="black"
    /><path
        d="M36.6995 31.2924C36.4573 31.3287 36.2151 31.3771 35.9729 31.4316C35.7307 31.4861 35.4945 31.5346 35.2523 31.5951L34.5378 31.7889L33.8294 32.0129L33.0665 38.9096C33.8275 38.042 34.6361 37.2172 35.4885 36.4391C36.3133 35.6951 37.1806 34.9996 38.0861 34.3562C38.9556 33.7373 39.8614 33.1712 40.7987 32.6608C41.7033 32.1675 42.6376 31.7307 43.5962 31.3529C43.0661 31.189 42.5233 31.0695 41.9734 30.9957C41.4461 30.9189 40.9138 30.8804 40.3809 30.8806C39.836 30.8806 39.2729 30.9291 38.6916 30.9896C38.1103 31.0502 37.4806 31.147 36.8266 31.2439H36.6995V31.2924Z"
        fill="black"
    /><path
        d="M30.808 41.7797L20.7869 46.7508C20.6537 47.3018 20.5386 47.865 20.4478 48.4281C20.357 48.9912 20.2904 49.5725 20.248 50.1538C20.2056 50.735 20.1874 51.3224 20.1935 51.9158C20.1996 52.5092 20.2359 53.1268 20.2964 53.7323C20.3888 54.601 20.5385 55.4627 20.7445 56.3117C20.947 57.1359 21.206 57.9451 21.5195 58.7337C21.827 59.5093 22.1892 60.262 22.6034 60.9862C23.0095 61.6948 23.4668 62.3728 23.9718 63.0146C24.0625 59.0291 24.7587 55.0804 26.0366 51.3042C26.6221 49.562 27.3324 47.8642 28.1619 46.224C28.9356 44.6807 29.8199 43.1954 30.808 41.7797"
        fill="black"
    /><path
        d="M27.7865 0C28.1236 1.27483 28.3945 2.56628 28.5979 3.86916C28.8158 5.21943 28.9793 6.63025 29.1004 8.10767C29.2215 9.5851 29.3124 11.1352 29.3729 12.6974C29.4335 14.2596 29.4698 15.9671 29.5001 17.6867C29.5956 21.0021 29.3419 24.3183 28.7432 27.5806C28.3032 29.9212 27.5772 32.1988 26.5815 34.3622C25.7792 36.0226 24.8899 37.6395 23.9173 39.2063C23.0286 40.5872 22.3166 42.0742 21.7981 43.6325L21.7496 43.7536L21.7012 43.8747L21.6528 43.9958L21.6043 44.1169L31.0744 39.5635V39.5635C31.5588 36.536 31.8736 33.6841 32.0432 31.0259C32.2127 28.3678 32.2551 26.0305 32.2067 23.7599C32.1582 21.4893 32.025 19.5214 31.8434 17.6443C31.6617 15.7673 31.4256 14.0961 31.1713 12.5642C30.9775 11.4016 30.7595 10.2633 30.5173 9.14914C30.2751 8.03501 30.0087 6.96933 29.7241 5.91576C29.4395 4.86218 29.1186 3.85099 28.8037 2.85797C28.4889 1.86495 28.1498 0.938528 27.7865 0"
        fill="#4D4D4D"
    /><rect x="52.0974" y="41.8159" width="177.903" height="26.9993" fill="#222323"/><path
        d="M60.3565 31.6859C54.5073 31.6859 51.8794 28.7614 51.8794 24.9588L52.1701 24.6682H55.7062L55.9968 24.9588C55.9968 27.0054 57.1655 28.174 60.6774 28.174C63.3113 28.174 64.7706 27.296 64.7706 25.5461C64.7706 23.4995 63.6019 22.9122 59.5088 22.3309C55.4156 21.7496 52.1701 20.2843 52.1701 16.1911C52.1701 13.2666 54.5073 10.6387 60.0416 10.6387C65.5759 10.6387 67.9131 13.2726 67.9131 16.7785L67.6225 17.0691H64.1832L63.8926 16.7785C63.8926 15.0225 63.0146 14.1506 59.7994 14.1506C57.1655 14.1506 56.2935 15.0286 56.2935 16.1972C56.2935 17.9531 57.4622 18.5344 61.5553 19.1218C65.6485 19.7091 68.8638 21.459 68.8638 25.5582C68.8638 28.7735 66.5265 31.698 60.3867 31.698"
        fill="black"
    /><path
        fill-rule="evenodd"
        clip-rule="evenodd"
        d="M74.9733 30.2146C74.9733 30.2146 76.148 31.6739 78.7758 31.6739V31.686C82.2877 31.686 85.2123 28.7553 85.2123 24.0809C85.2123 19.4064 82.2817 16.4818 78.7758 16.4818C76.1419 16.4818 74.9733 17.9411 74.9733 17.9411H74.6826L74.392 17.0631L74.1014 16.7725H70.8861L70.5955 17.0631V36.9357L70.8861 37.2263H74.392L74.6826 36.9357V30.2146H74.9733ZM74.6826 24.0748C74.6826 21.7376 75.5606 19.9816 77.8979 19.9816C80.2411 19.9816 81.1131 21.7376 81.1131 24.0748C81.1131 26.412 80.2351 28.168 77.8979 28.168C75.5606 28.168 74.6826 26.412 74.6826 24.0748Z"
        fill="black"
    /><path
        d="M96.3172 20.2843H94.2706C91.9334 20.2843 91.0554 21.4529 91.0554 24.0869V31.0986L90.7648 31.3892H87.2589L86.9683 31.0986V17.0691L87.2589 16.7784H90.4741L90.7648 17.0691L91.0554 17.9471H91.3461C91.3461 17.9471 91.9516 16.7784 94.5613 16.7784H96.3172L96.6079 17.0691V19.9815L96.3172 20.2843Z"
        fill="black"
    /><path
        d="M107.138 31.686C105.969 34.6106 104.8 36.3665 100.701 36.3665H99.2418L98.9512 36.0759V33.1452L99.2418 32.8546H100.701C102.166 32.8546 102.457 32.564 102.748 31.686V31.3953L98.0914 19.9816V17.0631L98.382 16.7725H101.016L101.307 17.0631L104.812 27.0054H105.103L108.609 17.0631L108.9 16.7725H111.534L111.824 17.0631V19.9816L107.138 31.686Z"
        fill="black"
    /><path
        fill-rule="evenodd"
        clip-rule="evenodd"
        d="M141.052 25.5461L141.342 25.2554V24.0808C141.342 19.9815 139.017 16.4696 134.337 16.4696C129.656 16.4696 127.319 19.9755 127.319 24.0747C127.319 28.174 129.656 31.6798 134.627 31.6798C139.011 31.6798 140.477 29.0519 140.767 27.296L140.477 27.0053H136.971L136.68 27.296C136.389 27.8833 135.511 28.174 134.633 28.174C132.314 28.174 131.709 26.4422 131.709 25.8367L131.999 25.5461H141.052ZM134.328 20.0134C135.663 20.0134 136.79 21.0062 136.959 22.3309L136.668 22.6215H131.987L131.697 22.3309C131.865 21.0062 132.992 20.0134 134.328 20.0134Z"
        fill="black"
    /><path
        d="M152.75 20.2843H150.703C148.366 20.2843 147.488 21.4529 147.488 24.0869V31.0986L147.198 31.3892H143.686L143.395 31.0986V17.0691L143.686 16.7784H146.901L147.192 17.0691L147.482 17.9471H147.773C147.773 17.9471 148.378 16.7784 150.988 16.7784H152.744L153.035 17.0691V19.9815L152.75 20.2843Z"
        fill="black"
    /><path
        d="M126.144 31.3952H124.388L123.801 31.0986L119.708 26.7147H119.417L117.661 28.4707L117.371 29.052V31.0986L117.08 31.3952H113.568L113.277 31.0986V11.2139L113.568 10.9232H117.08L117.371 11.2139V22.9122H117.661L123.51 17.063L124.092 16.7724H125.848L126.144 17.063V19.9876L122.632 23.4995V23.7901L126.435 28.174V31.0986L126.144 31.3952V31.3952Z"
        fill="black"
    /><g opacity="0.98"><path
            fill-rule="evenodd"
            clip-rule="evenodd"
            d="M63.7957 61.9488H58.7337L58.5642 61.7793V50.2566L58.7337 50.087H63.4808C65.3458 50.087 67.0412 50.9347 67.0412 53.3083C67.0836 54.355 66.4629 55.3151 65.4911 55.7061V55.8756C66.6652 56.2398 67.4365 57.3616 67.3561 58.5883C67.3561 61.1011 65.6607 61.9488 63.7957 61.9488ZM63.1175 51.6068H60.4049L60.2354 51.7764V54.8039L60.4049 54.9734H63.2871C64.6434 54.9734 65.3216 54.6344 65.3216 53.278C65.3216 51.9217 64.6434 51.6068 63.1175 51.6068ZM60.4049 56.5235H63.2871C64.9825 56.5235 65.6607 57.0321 65.6607 58.558C65.6607 59.9143 64.9825 60.423 63.6262 60.423H60.4049L60.2354 60.2534V56.6931L60.4049 56.5235Z"
            fill="white"
        /><path
            d="M76.1722 61.9489H68.5428L68.3733 61.7793V60.423L68.5428 60.0839L71.9337 57.3713C73.6291 56.015 74.3072 55.1673 74.3072 53.6414C74.3072 52.4304 73.7986 51.4374 72.2727 51.4374C70.7469 51.4374 70.0687 52.2851 70.0687 53.6414L69.8992 53.8109H68.5428L68.3733 53.6414C68.3733 51.4374 69.7296 49.9115 72.2727 49.9115C74.9854 49.9115 76.0026 51.7764 76.0026 53.4719C76.0026 55.6759 74.9854 56.8627 73.29 58.219L70.7469 60.2535V60.423H76.1964L76.3659 60.5926V61.8036L76.1722 61.9489Z"
            fill="white"
        /><path
            fill-rule="evenodd"
            clip-rule="evenodd"
            d="M83.2929 61.9488H78.2067L78.0371 61.7793V50.2566L78.2067 50.087H82.9538C84.8187 50.087 86.5142 50.9347 86.5142 53.3083C86.5604 54.3489 85.9506 55.3073 84.9883 55.7061V55.8756C86.1624 56.2398 86.9336 57.3616 86.8532 58.5883C86.8532 61.1011 85.1578 61.9488 83.2929 61.9488ZM82.6147 51.6068H79.9263L79.7567 51.7764V54.8039L79.9263 54.9734H82.8085C84.1648 54.9734 84.843 54.6344 84.843 53.278C84.843 51.9217 84.1648 51.6068 82.6147 51.6068ZM79.9263 56.5235H82.7843C84.4797 56.5235 85.1578 57.0321 85.182 58.558C85.182 59.9143 84.5039 60.423 83.1476 60.423H79.9263L79.7567 60.2534V56.6931L79.9263 56.5235Z"
            fill="white"
        /><path
            d="M104.825 61.9488H103.468L103.299 61.7793V53.6413H103.129L99.7383 61.7611L99.5688 61.9307H98.0429L97.8734 61.7611L94.4583 53.6413H94.2888V61.7611L94.1193 61.9307H92.7629L92.6418 61.7611V50.2566L92.8114 50.087H94.6763L94.8459 50.2566L98.6969 59.7448H98.8664L102.79 50.2566L102.96 50.087H104.825L104.994 50.2566V61.7611L104.825 61.9488Z"
            fill="white"
        /><path
            fill-rule="evenodd"
            clip-rule="evenodd"
            d="M112.26 61.9489H113.471L113.616 61.7612V57.0323C113.616 54.5134 112.769 53.3024 110.226 53.3024C107.683 53.3024 106.835 54.6345 106.835 55.8455L107.004 56.015H108.361L108.53 55.8455C108.53 55.1673 109.039 54.8282 110.226 54.8282C111.412 54.8282 111.921 55.1431 111.921 56.3541V56.6932L111.751 56.8627C111.251 56.7503 110.739 56.6934 110.226 56.6932C108.022 56.6932 106.496 57.5409 106.496 59.4058C106.496 61.1012 107.513 62.1185 109.378 62.1185C110.287 62.1806 111.17 61.8021 111.751 61.1012H111.921L112.091 61.7794L112.26 61.9489ZM111.776 58.219L111.945 58.3886V58.9214C111.945 59.9387 111.098 60.6168 109.741 60.6168C108.724 60.6168 108.215 60.2535 108.215 59.4058C108.215 58.5581 108.894 58.0495 110.419 58.0495C110.877 58.0394 111.334 58.0966 111.776 58.219Z"
            fill="white"
        /><path
            d="M119.889 54.9977H119.042C117.685 54.9977 116.838 55.5063 116.838 57.5408V61.7793L116.668 61.9489H115.312L115.142 61.7793V53.6414L115.312 53.4718H116.523L116.692 53.6414L116.862 54.3195H117.031C117.595 53.7106 118.409 53.3975 119.235 53.4718H119.889L120.059 53.6414V54.8524L119.889 54.9977Z"
            fill="white"
        /><path
            d="M127.882 61.9488H127.204L126.865 61.7793L124.322 58.558H124.128L122.917 59.769L122.747 60.1081V61.7611L122.578 61.9307H121.222L121.1 61.7611V50.2566L121.27 50.087H122.626L122.796 50.2566V57.5226H122.965L126.865 53.6232L127.204 53.4536H127.713L127.882 53.6232V54.8342L125.508 57.2077V57.3773L128.052 60.5986V61.8096L127.882 61.9488Z"
            fill="white"
        /><path
            fill-rule="evenodd"
            clip-rule="evenodd"
            d="M132.629 53.3024C129.941 53.3024 128.73 55.3369 128.73 57.7104C128.73 60.2535 130.086 62.1185 132.823 62.1185C134.857 62.1185 136.044 60.9317 136.214 59.5754L136.044 59.4058H134.688L134.518 59.5754C134.252 60.2622 133.554 60.6811 132.823 60.5926C132.253 60.6459 131.688 60.4547 131.267 60.0667C130.847 59.6786 130.611 59.1302 130.619 58.5581L130.788 58.3886H136.359L136.529 58.219V57.7104C136.529 55.3369 135.318 53.3024 132.629 53.3024ZM132.629 54.8282C133.753 54.8282 134.664 55.7391 134.664 56.8627L134.494 57.0323H130.764L130.595 56.8627C130.595 55.7391 131.506 54.8282 132.629 54.8282Z"
            fill="white"
        /><path
            d="M142.293 61.9489H140.937C139.726 61.9489 138.563 61.2707 138.563 59.7449V55.1673L138.394 54.9977H137.183L137.013 54.8282V53.6172L137.183 53.4477H138.394L138.563 53.2781V51.7765L138.733 51.6069H140.089L140.259 51.7765V53.2842L140.428 53.4537H142.293L142.463 53.6233V54.8343L142.293 55.0038H140.428L140.259 55.1733V59.7509C140.234 59.9371 140.298 60.124 140.431 60.2568C140.564 60.3895 140.75 60.4532 140.937 60.4291H142.293L142.463 60.5986V61.8096L142.293 61.9489Z"
            fill="white"
        /><path
            fill-rule="evenodd"
            clip-rule="evenodd"
            d="M145.684 61.1012C146.214 61.7723 147.033 62.1502 147.888 62.1184C150.261 62.1184 151.618 60.2353 151.618 57.6922C151.618 55.1491 150.261 53.2842 147.888 53.2842C147.034 53.2703 146.225 53.6637 145.708 54.3438H145.539L145.369 53.6656L145.199 53.4961H143.988L143.819 53.6656V65.1702L143.988 65.3397H145.345L145.514 65.1702V61.1012H145.684ZM145.514 57.7346C145.514 55.7001 146.362 54.8524 147.718 54.8524L147.743 54.8282C149.075 54.8282 149.922 55.8697 149.922 57.7346C149.922 59.5996 149.075 60.6168 147.718 60.6168C146.362 60.6168 145.514 59.7691 145.514 57.7346Z"
            fill="white"
        /><path
            d="M154.33 61.9488H152.974L152.805 61.7793V50.2566L152.974 50.087H154.33L154.5 50.2566V61.7611L154.33 61.9488Z"
            fill="white"
        /><path
            fill-rule="evenodd"
            clip-rule="evenodd"
            d="M161.427 61.9489H162.638L162.832 61.7612V57.0323C162.832 54.5134 161.984 53.3024 159.441 53.3024C156.898 53.3024 156.05 54.6345 156.05 55.8455L156.22 56.015H157.527L157.697 55.8455C157.697 55.1673 158.206 54.8282 159.392 54.8282C160.579 54.8282 161.088 55.1431 161.088 56.3541V56.6932L160.918 56.8627C160.417 56.7503 159.906 56.6934 159.392 56.6932C157.188 56.6932 155.663 57.5409 155.663 59.4058C155.663 61.1012 156.68 62.1185 158.545 62.1185C159.453 62.1806 160.337 61.8021 160.918 61.1012H161.088L161.257 61.7794L161.427 61.9489ZM160.942 58.219L161.112 58.3886V58.9214C161.112 59.9387 160.264 60.6168 158.908 60.6168C157.891 60.6168 157.382 60.2535 157.382 59.4058C157.382 58.5581 158.06 58.0495 159.586 58.0495C160.044 58.0394 160.501 58.0966 160.942 58.219Z"
            fill="white"
        /><path
            d="M167.894 60.5926C169.25 60.5926 169.759 59.9144 169.928 59.2363L170.098 59.0667H171.454L171.624 59.2363C171.454 60.7621 170.267 62.1185 167.894 62.1185C165.351 62.1185 163.825 60.4231 163.825 57.7104C163.825 54.9978 165.351 53.2842 167.894 53.2842C170.267 53.2842 171.454 54.6405 171.624 56.1664L171.454 56.3359H170.098L169.928 56.1664C169.759 55.4882 169.25 54.81 167.894 54.81C166.368 54.81 165.52 55.8273 165.52 57.6922C165.52 59.5572 166.368 60.5926 167.894 60.5926Z"
            fill="white"
        /><path
            fill-rule="evenodd"
            clip-rule="evenodd"
            d="M176.201 53.3024C173.513 53.3024 172.302 55.3369 172.302 57.7104C172.302 60.2535 173.658 62.1185 176.371 62.1185C178.405 62.1185 179.592 60.9317 179.761 59.5754L179.592 59.4058H178.236L178.066 59.5754C177.8 60.2622 177.102 60.6811 176.371 60.5926C175.801 60.6459 175.236 60.4547 174.815 60.0667C174.395 59.6786 174.159 59.1302 174.167 58.5581L174.336 58.3886H179.931L180.101 58.219V57.7104C180.101 55.3369 178.89 53.3024 176.201 53.3024ZM176.201 54.8282C177.325 54.8282 178.236 55.7391 178.236 56.8627L178.066 57.0323H174.336L174.167 56.8627C174.167 55.7391 175.078 54.8282 176.201 54.8282Z"
            fill="white"
        /><path
            fill-rule="evenodd"
            clip-rule="evenodd"
            d="M191.266 61.9488H192.477L192.647 61.7611V50.2566L192.477 50.087H191.121L190.951 50.2566V54.3013H190.782C190.251 53.6302 189.432 53.2523 188.578 53.2841C186.204 53.2841 184.823 55.1672 184.823 57.7103C184.823 60.2534 186.18 62.1184 188.553 62.1184C189.408 62.1501 190.227 61.7722 190.757 61.1011H190.927L191.096 61.7793L191.266 61.9488ZM186.543 57.7103C186.543 55.8454 187.391 54.8281 188.747 54.8281C190.128 54.8281 190.951 55.6758 190.951 57.7103C190.951 59.7448 190.103 60.5925 188.747 60.5925C187.391 60.5925 186.543 59.5753 186.543 57.7103Z"
            fill="white"
        /><path
            fill-rule="evenodd"
            clip-rule="evenodd"
            d="M197.733 53.3024C195.044 53.3024 193.833 55.3369 193.833 57.7104C193.833 60.2535 195.19 62.1185 197.902 62.1185C199.937 62.1185 201.124 60.9317 201.293 59.5754L201.124 59.4058H199.767L199.598 59.5754C199.332 60.2622 198.634 60.6811 197.902 60.5926C197.333 60.6459 196.767 60.4547 196.347 60.0667C195.926 59.6786 195.691 59.1302 195.698 58.5581L195.868 58.3886H201.463L201.632 58.219V57.7104C201.632 55.3369 200.421 53.3024 197.733 53.3024ZM197.733 54.8282C198.856 54.8282 199.767 55.7391 199.767 56.8627L199.598 57.0323H195.868L195.698 56.8627C195.698 55.7391 196.609 54.8282 197.733 54.8282Z"
            fill="white"
        /><path
            d="M214.517 61.9488H213.137L212.967 61.7793V56.6931C212.967 55.6758 212.798 54.8281 211.441 54.8281C210.23 54.8281 209.576 55.6758 209.576 57.0322V61.7611L209.407 61.9307H208.051L207.881 61.7611V56.6749C207.881 55.6577 207.711 54.81 206.355 54.81C205.507 54.81 204.49 55.3186 204.49 57.014V61.7611L204.321 61.9307H202.964L202.843 61.7611V53.6414L203.013 53.4718H204.224L204.393 53.6414L204.563 54.3195H204.66C205.169 53.6072 206.015 53.2142 206.888 53.2841C207.795 53.2275 208.653 53.6991 209.092 54.4951H209.262C209.862 53.7018 210.81 53.2501 211.805 53.2841C214.178 53.2841 214.687 54.81 214.687 56.6749V61.7611L214.517 61.9488Z"
            fill="white"
        /><path
            fill-rule="evenodd"
            clip-rule="evenodd"
            d="M223.866 57.6922C223.866 54.9796 222.34 53.2842 219.797 53.2842C217.23 53.2842 215.728 54.9796 215.728 57.6922C215.728 60.4049 217.254 62.1003 219.797 62.1003C222.34 62.1003 223.866 60.4049 223.866 57.6922ZM222.171 57.668C222.171 59.533 221.323 60.5502 219.797 60.5502V60.5926C218.247 60.5926 217.375 59.5753 217.375 57.7104C217.375 55.8455 218.271 54.7858 219.797 54.7858C221.323 54.7858 222.171 55.8031 222.171 57.668Z"
            fill="white"
        /></g>
</svg>
